<?xml version="1.0" encoding="UTF-8" standalone="no"?>
<!-- Created with Inkscape (http://www.inkscape.org/) -->
<svg
   xmlns:dc="http://purl.org/dc/elements/1.1/"
   xmlns:cc="http://creativecommons.org/ns#"
   xmlns:rdf="http://www.w3.org/1999/02/22-rdf-syntax-ns#"
   xmlns:svg="http://www.w3.org/2000/svg"
   xmlns="http://www.w3.org/2000/svg"
   xmlns:xlink="http://www.w3.org/1999/xlink"
   xmlns:sodipodi="http://sodipodi.sourceforge.net/DTD/sodipodi-0.dtd"
   xmlns:inkscape="http://www.inkscape.org/namespaces/inkscape"
   width="64px"
   height="64px"
   id="svg3043"
   sodipodi:version="0.32"
   inkscape:version="0.46"
   inkscape:export-filename="/home/wr/kmj.png"
   inkscape:export-xdpi="90"
   inkscape:export-ydpi="90"
   sodipodi:docname="kmj.svg"
   inkscape:output_extension="org.inkscape.output.svg.inkscape">
  <defs
     id="defs3045">
    <linearGradient
       id="linearGradient2679">
      <stop
         style="stop-color:#e8a118;stop-opacity:0.93814433;"
         offset="0"
         id="stop2681" />
      <stop
         style="stop-color:#ebebeb;stop-opacity:0;"
         offset="1"
         id="stop2683" />
    </linearGradient>
    <linearGradient
       inkscape:collect="always"
       xlink:href="#linearGradient2679"
       id="linearGradient2077"
       gradientUnits="userSpaceOnUse"
       gradientTransform="matrix(0.995068,0,0,0.988025,8.1245,-23.827)"
       x1="40.375843"
       y1="-27.558508"
       x2="40.375843"
       y2="-43.017994" />
    <linearGradient
       id="linearGradient3052">
      <stop
         style="stop-color:#ffffff;stop-opacity:1;"
         offset="0"
         id="stop3054" />
      <stop
         style="stop-color:#ebebeb;stop-opacity:0;"
         offset="1"
         id="stop3056" />
    </linearGradient>
    <linearGradient
       inkscape:collect="always"
       xlink:href="#linearGradient3052"
       id="linearGradient2075"
       gradientUnits="userSpaceOnUse"
       gradientTransform="translate(-153.7501,-169.0629)"
       x1="205.16107"
       y1="35.479298"
       x2="205.16107"
       y2="48.081699" />
    <linearGradient
       id="linearGradient28156">
      <stop
         id="stop28158"
         offset="0"
         style="stop-color:#e9e86e;stop-opacity:1;" />
      <stop
         id="stop28160"
         offset="1"
         style="stop-color:#e8a21a;stop-opacity:1;" />
    </linearGradient>
    <linearGradient
       inkscape:collect="always"
       xlink:href="#linearGradient28156"
       id="linearGradient2073"
       gradientUnits="userSpaceOnUse"
       gradientTransform="matrix(1.154862,0,0,1.199992,-212.5919,-1124.079)"
       spreadMethod="pad"
       x1="220.28651"
       y1="885.04584"
       x2="222.93102"
       y2="888.01709" />
    <linearGradient
       id="linearGradient27236">
      <stop
         id="stop27238"
         offset="0"
         style="stop-color:#5d5d5d;stop-opacity:1;" />
      <stop
         id="stop27240"
         offset="1"
         style="stop-color:black;stop-opacity:1;" />
    </linearGradient>
    <linearGradient
       inkscape:collect="always"
       xlink:href="#linearGradient27236"
       id="linearGradient2071"
       gradientUnits="userSpaceOnUse"
       gradientTransform="matrix(1.154862,0,0,1.199992,-217.6836,-1119)"
       spreadMethod="pad"
       x1="220.28651"
       y1="885.04584"
       x2="222.93102"
       y2="888.01709" />
    <linearGradient
       id="linearGradient3302">
      <stop
         style="stop-color:black;stop-opacity:0"
         offset="0"
         id="stop3304" />
      <stop
         style="stop-color:black;stop-opacity:1"
         offset="1"
         id="stop3306" />
    </linearGradient>
    <linearGradient
       inkscape:collect="always"
       xlink:href="#linearGradient3302"
       id="linearGradient2069"
       gradientUnits="userSpaceOnUse"
       gradientTransform="matrix(1.06152,0,0,1.06152,186.5032,286.8166)"
       x1="-178.52281"
       y1="-386.88632"
       x2="-170.46266"
       y2="-380.03079" />
    <linearGradient
       id="linearGradient3296">
      <stop
         style="stop-color:black;stop-opacity:0"
         offset="0"
         id="stop3298" />
      <stop
         style="stop-color:black;stop-opacity:1"
         offset="1"
         id="stop3300" />
    </linearGradient>
    <linearGradient
       inkscape:collect="always"
       xlink:href="#linearGradient3296"
       id="linearGradient2067"
       gradientUnits="userSpaceOnUse"
       gradientTransform="matrix(1.06152,0,0,1.06152,186.5032,286.8166)"
       x1="-185.1252"
       y1="-358.72562"
       x2="-170.46353"
       y2="-358.72562" />
    <linearGradient
       inkscape:collect="always"
       xlink:href="#linearGradient4116"
       id="linearGradient2065"
       gradientUnits="userSpaceOnUse"
       gradientTransform="matrix(1.06152,0,0,1.06152,5.916994,25.30767)"
       x1="-121.70721"
       y1="-319.28024"
       x2="-127.92004"
       y2="-328.39029" />
    <linearGradient
       id="linearGradient4116">
      <stop
         id="stop4118"
         offset="0"
         style="stop-color:black;stop-opacity:0" />
      <stop
         id="stop4120"
         offset="1"
         style="stop-color:black;stop-opacity:1" />
    </linearGradient>
    <linearGradient
       inkscape:collect="always"
       xlink:href="#linearGradient4116"
       id="linearGradient2063"
       gradientUnits="userSpaceOnUse"
       gradientTransform="matrix(1.06152,0,0,1.06152,5.916994,25.30767)"
       x1="-154.58412"
       y1="-313.73157"
       x2="-154.58412"
       y2="-328.2699" />
    <inkscape:perspective
       sodipodi:type="inkscape:persp3d"
       inkscape:vp_x="0 : 32 : 1"
       inkscape:vp_y="0 : 1000 : 0"
       inkscape:vp_z="64 : 32 : 1"
       inkscape:persp3d-origin="32 : 21.333333 : 1"
       id="perspective3051" />
  </defs>
  <sodipodi:namedview
     id="base"
     pagecolor="#ffffff"
     bordercolor="#666666"
     borderopacity="1.0"
     inkscape:pageopacity="0.0"
     inkscape:pageshadow="2"
     inkscape:zoom="5.5"
     inkscape:cx="32"
     inkscape:cy="32"
     inkscape:current-layer="layer1"
     showgrid="true"
     inkscape:document-units="px"
     inkscape:grid-bbox="true"
     inkscape:window-width="944"
     inkscape:window-height="1006"
     inkscape:window-x="966"
     inkscape:window-y="127" />
  <metadata
     id="metadata3048">
    <rdf:RDF>
      <cc:Work
         rdf:about="">
        <dc:format>image/svg+xml</dc:format>
        <dc:type
           rdf:resource="http://purl.org/dc/dcmitype/StillImage" />
      </cc:Work>
    </rdf:RDF>
  </metadata>
  <g
     id="layer1"
     inkscape:label="Layer 1"
     inkscape:groupmode="layer">
    <g
       inkscape:label="tileselect"
       transform="matrix(-0.6332175,0,0,0.6332274,-58.375292,268.31671)"
       id="TILE_2_SEL"
       style="display:inline">
      <path
         style="opacity:0.35;fill:url(#linearGradient2063);fill-opacity:1;fill-rule:evenodd;stroke:none;stroke-width:0.5;stroke-linecap:butt;stroke-linejoin:miter;marker:none;marker-start:none;marker-mid:none;marker-end:none;stroke-miterlimit:4;stroke-dasharray:none;stroke-dashoffset:0;stroke-opacity:1;visibility:visible;display:inline;overflow:visible"
         d="M -130.52152,-375.88059 L -197.33093,-311.69179 C -194.67211,-309.36765 -190.70381,-307.5419 -188.87195,-307.74426 C -167.93673,-307.74426 -133.54935,-307.74069 -132.44552,-307.74426 C -132.04471,-307.74553 -131.21483,-308.30161 -130.52152,-308.6731 L -130.52152,-375.88059 z"
         id="path2039" />
      <path
         sodipodi:nodetypes="ccccc"
         style="opacity:0.35;fill:url(#linearGradient2065);fill-opacity:1;fill-rule:evenodd;stroke:none;stroke-width:0.5;stroke-linecap:butt;stroke-linejoin:miter;marker:none;marker-start:none;marker-mid:none;marker-end:none;stroke-miterlimit:4;stroke-dasharray:none;stroke-dashoffset:0;stroke-opacity:1;visibility:visible;display:inline;overflow:visible"
         d="M -130.52152,-375.88059 L -130.52152,-308.6731 C -126.59213,-310.7785 -115.55259,-325.32651 -113.39934,-328.16537 C -113.39934,-351.40329 -117.03249,-366.67895 -117.04172,-389.95021 L -130.52152,-375.88059 z"
         id="path2041" />
      <g
         style="display:inline"
         id="g2043"
         transform="translate(-189.95,-283.7289)">
        <path
           style="opacity:0.35;fill:url(#linearGradient2067);fill-opacity:1;fill-rule:evenodd;stroke:none;stroke-width:0.5;stroke-linecap:butt;stroke-linejoin:miter;marker:none;marker-start:none;marker-mid:none;marker-end:none;stroke-miterlimit:4;stroke-dasharray:none;stroke-dashoffset:0;stroke-opacity:1;visibility:visible;display:inline;overflow:visible"
           d="M -9.115042,-116.06334 C -9.672744,-114.8272 -9.95671,-113.51784 -10.0107,-111.81726 C -10.0107,-84.593612 -10.0107,-59.42687 -10.0107,-32.203239 C -10.027844,-30.8337 -8.928405,-29.301841 -7.3900717,-27.957159 L 74.181117,-106.3438 C 74.178548,-109.58236 74.15337,-112.82482 74.147945,-116.06334 L -9.115042,-116.06334 z"
           id="path2045" />
        <path
           sodipodi:nodetypes="ccccccc"
           style="opacity:0.35;fill:url(#linearGradient2069);fill-opacity:1;fill-rule:evenodd;stroke:none;stroke-width:0.5;stroke-linecap:butt;stroke-linejoin:miter;marker:none;marker-start:none;marker-mid:none;marker-end:none;stroke-miterlimit:4;stroke-dasharray:none;stroke-dashoffset:0;stroke-opacity:1;visibility:visible;display:inline;overflow:visible"
           d="M -9.115042,-116.06334 L 74.147945,-116.06334 C 74.144134,-118.34022 74.153497,-120.62002 74.147945,-122.89687 C 73.815329,-125.73132 70.940902,-126.77003 68.475447,-126.41315 C 47.164877,-126.41314 30.635559,-129.59513 9.3250008,-129.59513 C 6.083012,-128.9663 -5.0513623,-120.34096 -7.6222792,-118.38542 C -8.4064348,-117.59581 -8.7650694,-116.83905 -9.115042,-116.06334 z"
           id="path2047" />
        <g
           transform="matrix(0.995068,0,0,0.988025,8.12447,-23.82701)"
           id="g2049">
          <path
             sodipodi:nodetypes="cccccsccccc"
             id="path2051"
             d="M 7.573078,-112.24945 C 4.518975,-111.63647 2.537763,-108.3278 0.115843,-106.42154 C -1.8000278,-104.42526 -2.0522035,-102.72327 -2.134984,-100.02526 C -2.134984,-73.487703 -2.134984,-46.950149 -2.134984,-20.412584 C -2.1790536,-16.770153 1.585694,-16.126221 4.309818,-16.437611 C 24.031762,-16.437611 62.435775,-16.434131 63.475637,-16.437611 C 65.993318,-16.445844 69.652558,-21.630851 72.891369,-24.592408 C 73.504936,-28.283762 73.037448,-32.121036 73.183699,-35.874634 C 73.167323,-60.192946 73.216463,-84.512915 73.159112,-108.83017 C 72.845775,-111.59321 70.122205,-112.59734 67.799638,-112.24945 C 47.724123,-112.24945 27.648594,-112.24945 7.573078,-112.24945 z"
             style="fill:url(#linearGradient2071);fill-opacity:1;fill-rule:evenodd;stroke:none;stroke-width:0.5;stroke-linecap:butt;stroke-linejoin:miter;marker:none;marker-start:none;marker-mid:none;marker-end:none;stroke-miterlimit:4;stroke-dasharray:none;stroke-dashoffset:0;stroke-opacity:1;visibility:visible;display:inline;overflow:visible" />
          <path
             sodipodi:nodetypes="cccccsscccc"
             id="path2053"
             d="M 12.664716,-117.3279 C 9.610614,-116.71492 7.902214,-114.0299 5.207481,-111.49999 C 2.909663,-109.50371 2.984879,-108.36868 2.956654,-105.10371 C 2.956654,-78.566152 2.956654,-52.028598 2.956654,-25.491033 C 2.912585,-21.848602 6.677332,-21.204675 9.401456,-21.516061 C 29.1234,-21.516061 68.976131,-21.301802 69.724344,-21.516061 C 70.105598,-21.625236 76.476685,-28.091619 77.382813,-29.330683 C 78.357321,-30.663249 77.979485,-37.044037 78.125737,-40.797636 C 77.719924,-65.115948 77.788852,-89.591364 78.250751,-113.90862 C 77.937413,-116.67166 75.213843,-117.67579 72.891277,-117.3279 C 52.81576,-117.3279 32.740233,-117.3279 12.664716,-117.3279 z"
             style="fill:url(#linearGradient2073);fill-opacity:1;fill-rule:evenodd;stroke:none;stroke-width:0.5;stroke-linecap:butt;stroke-linejoin:miter;marker:none;marker-start:none;marker-mid:none;marker-end:none;stroke-miterlimit:4;stroke-dasharray:none;stroke-dashoffset:0;stroke-opacity:1;visibility:visible;display:inline;overflow:visible" />
          <path
             id="path2055"
             d="M 77.049775,-116.3806 C 77.781183,-115.62061 78.146893,-114.68061 78.146893,-113.56062 L 78.146893,-31.541187 C 78.146893,-30.461194 77.781183,-29.521205 77.049775,-28.721206 C 76.318365,-27.961216 75.432967,-27.581215 74.393591,-27.581215 L 12.608452,-27.581215 C 11.569075,-27.581215 10.683677,-27.961216 9.952268,-28.721206 C 9.220859,-29.521205 8.855148,-30.461194 8.855148,-31.541187 L 8.855148,-113.56062 C 8.855148,-114.68061 9.220859,-115.62061 9.952268,-116.3806 C 10.683677,-117.1806 11.569075,-117.58059 12.608452,-117.58059 L 74.393591,-117.58059 C 75.432967,-117.58059 76.318365,-117.1806 77.049775,-116.3806 z"
             style="fill:#ebe972;fill-opacity:1" />
          <path
             id="path2057"
             d="M 73.758416,-115.9606 C 74.489826,-115.9606 75.10576,-115.68061 75.606196,-115.12061 C 76.145136,-114.56061 76.4146,-113.90061 76.4146,-113.14062 L 76.4146,-32.081184 C 76.4146,-31.321193 76.145136,-30.661197 75.606196,-30.101198 C 75.10576,-29.541198 74.489826,-29.261203 73.758416,-29.261203 L 13.243626,-29.261203 C 12.512217,-29.261203 11.896283,-29.541198 11.395845,-30.101198 C 10.856906,-30.661197 10.587442,-31.321193 10.587442,-32.081184 L 10.587442,-113.14062 C 10.587442,-113.90061 10.856906,-114.56061 11.395845,-115.12061 C 11.896283,-115.68061 12.512217,-115.9606 13.243626,-115.9606 L 73.758416,-115.9606 z"
             style="fill:#ebebad;fill-opacity:1" />
        </g>
        <path
           sodipodi:nodetypes="ccccccccccccc"
           style="fill:url(#linearGradient2075);fill-opacity:1;display:inline"
           d="M 80.61906,-137.51576 C 81.3251,-137.51576 81.91968,-137.24739 82.40276,-136.71064 C 82.92301,-136.17388 83.18311,-135.54128 83.18311,-134.81284 L 83.18311,-117.9263 C 83.18311,-117.19787 82.92301,-116.56528 82.40276,-116.02854 C 81.91968,-115.49177 81.3251,-115.2234 80.61906,-115.2234 L 22.20289,-115.2234 C 21.49685,-115.2234 20.90227,-115.49177 20.41919,-116.02854 C 19.89894,-116.56528 19.63882,-117.19787 19.63882,-117.9263 L 19.63882,-134.81284 C 19.63882,-135.54128 19.89894,-136.17388 20.41919,-136.71064 C 20.90227,-137.24739 21.49685,-137.51576 22.20289,-137.51576 L 80.61906,-137.51576 z"
           id="path2059" />
        <path
           sodipodi:nodetypes="ccccccccccccc"
           style="fill:url(#linearGradient2077);fill-opacity:1;display:inline"
           d="M 84.79427,-73.775659 C 85.52207,-73.02477 85.88597,-72.096027 85.88597,-70.989449 L 85.88597,-54.99048 C 85.88597,-53.92342 85.52207,-52.99469 84.79427,-52.20427 C 84.06646,-51.45338 83.18543,-51.07793 82.15118,-51.07793 L 20.67077,-51.07793 C 19.63652,-51.07793 18.75549,-51.45338 18.02768,-52.20427 C 17.29988,-52.99469 16.93597,-53.92342 16.93597,-54.99048 L 16.93597,-70.989449 C 16.93597,-72.096027 17.29988,-73.02477 18.02768,-73.775659 C 18.75549,-74.566079 19.63652,-74.961279 20.67077,-74.961279 L 82.15118,-74.961279 C 83.18543,-74.961279 84.06646,-74.566079 84.79427,-73.775659 z"
           id="path2061" />
      </g>
    </g>
    <g
       style="display:inline"
       id="BAMBOO_1"
       transform="matrix(0.9074157,0,0,0.6872698,-18.126796,-154.93366)"
       inkscape:label="#g13978">
      <g
         id="g11775">
        <path
           style="fill:#333333"
           d="M 58,210.625 C 54.808001,210.89334 52.5175,211.3725 51.1875,212.0625 C 49.819501,212.71418 48.82675,213.26582 48.21875,213.6875 C 47.610751,214.07083 46.80725,214.73624 45.78125,215.65625 C 44.679251,216.53793 43.7845,217.5375 43.0625,218.6875 L 40.78125,222.59375 L 37.75,228.25 C 36.205461,231.05187 34.994154,234.03694 33.75,236.96875 C 33.808201,236.69313 33.94585,236.14382 34.15625,235.3125 L 35.96875,228.9375 L 37.1875,224.03125 C 37.156943,223.77988 37.043402,223.64699 37,223.53125 C 36.528307,223.67674 36.306234,224.25002 36.03125,224.625 C 35.271251,225.85169 34.57675,227.16833 33.96875,228.625 L 32.21875,233.125 C 31.686751,234.65835 31.206,236.34749 30.75,238.1875 L 28.84375,245.59375 L 28.53125,247.09375 L 28.25,248.71875 L 28.09375,249.6875 L 28.0625,251.125 L 28.15625,254 L 28.0625,255.71875 L 28,255.84375 L 26.5625,265.34375 C 25.574501,264.38541 24.83775,263.45124 24.34375,262.53125 C 23.659749,261.26625 22.765,260.39749 21.625,259.9375 L 18.1875,259.75 C 17.047501,260.01832 16.2686,260.70083 15.8125,261.8125 L 15.40625,262.84375 C 15.17825,263.80206 15.1361,264.89833 15.25,266.125 L 13.46875,266.125 C 13.46875,266.50795 13.5326,266.83718 13.625,267.03125 C 13.618595,267.1365 13.747889,267.15414 13.8125,267.21875 L 15.40625,267.75 C 16.20425,268.01832 17.2706,268.86291 18.5625,270.28125 L 22.6875,274.34375 L 23.96875,275.3125 C 23.284749,276.04082 22.24975,275.95832 20.84375,275 L 15.6875,271.46875 L 15.6875,272.90625 L 19.34375,275.40625 C 19.694316,275.51088 19.889321,276.04084 19.84375,276.1875 C 19.415141,276.70859 18.816636,276.59415 18.1875,276.625 C 17.172201,276.57945 16.4616,276.58859 16.0625,276.71875 C 15.907748,276.75729 15.813872,276.8845 15.6875,276.96875 L 15.75,277.875 L 19.84375,277.59375 C 22.541749,277.3254 24.86775,278.39043 26.84375,280.84375 L 27.875,280.84375 C 27.343001,280.26875 26.978,279.47249 26.75,278.4375 C 26.677716,277.75368 26.858572,277.2123 27.125,277 L 27.65625,277.1875 L 33.875,277.6875 L 37.0625,276.625 C 38.696501,275.78165 40.1945,274.67834 41.5625,273.375 C 42.892501,274.14167 43.47125,275.02751 43.28125,276.0625 C 43.091251,277.05918 42.53025,277.86249 41.65625,278.4375 L 38.65625,280.375 C 37.478251,281.14168 36.096,281.78293 34.5,282.28125 L 29.59375,282.75 L 27.125,283.09375 C 26.818446,283.34195 26.77014,283.85241 26.9375,284.3125 L 31.78125,284.3125 L 29.9375,288.53125 C 32.641301,285.10348 34.9318,284.20417 36.6875,285.84375 C 36.466901,285.16356 36.42885,284.63963 36.46875,284.28125 C 36.464734,284.01106 36.620204,283.71632 36.8125,283.71875 L 43.46875,283.71875 L 43.46875,282.96875 L 38.78125,282.375 L 38.9375,282.0625 L 39.96875,281.03125 L 40.9375,280.34375 C 41.198643,280.2674 41.402955,280.25781 41.5,280.34375 L 42.03125,281.3125 L 43.0625,281.34375 C 43.480501,280.76873 43.6385,280.09333 43.5625,279.25 C 44.684701,278.47173 45.3764,277.8276 45.625,277.375 C 45.636701,277.35264 45.64675,277.30275 45.65625,277.28125 L 45.9375,275.40625 C 45.975501,274.60124 45.6105,273.48083 44.8125,272.0625 L 44.59375,268.5625 L 44.625,268.5 L 45.34375,268.5 C 46.026152,268.35945 45.74338,268.10603 46.0625,267.5625 L 46.0625,267.125 L 45.90625,266.25 L 44.59375,266.25 L 43.28125,266.25 L 41.0625,266.25 L 40.25,266.25 L 38.5,266.25 L 35.96875,266.25 L 40.4375,258.8125 L 41.5625,258.8125 L 42.25,257.15625 L 41.46875,257.15625 L 42.25,255.78125 C 44.682001,256.12625 46.1555,255.64708 46.6875,254.34375 L 48.78125,249.90625 L 50.46875,246.53125 L 51.90625,243.78125 L 53.8125,239.96875 L 55.8125,236.125 L 57.59375,232.5625 C 57.826451,232.02583 57.923,231.61818 57.9375,231.375 C 57.938001,231.3584 57.9382,231.29637 57.9375,231.28125 C 57.937201,231.27766 57.9374,231.25724 57.9375,231.25 C 57.937601,231.24683 57.9374,231.22247 57.9375,231.21875 C 57.931001,231.21231 57.91285,231.19385 57.90625,231.1875 C 57.906351,231.18427 57.90595,231.16015 57.90625,231.15625 C 57.903151,231.15246 57.8784,231.12844 57.875,231.125 C 57.869001,231.11837 57.85005,231.10001 57.84375,231.09375 C 57.839951,231.09394 57.8157,231.09369 57.8125,231.09375 C 57.805001,231.09393 57.78405,231.09399 57.78125,231.09375 C 57.775351,231.09368 57.7562,231.09346 57.75,231.09375 C 57.746401,231.09366 57.6907,231.09375 57.6875,231.09375 C 57.652801,231.10158 57.5934,231.11488 57.5625,231.125 C 57.538701,231.13911 57.49395,231.17149 57.46875,231.1875 C 56.841651,231.546 55.27515,233.7006 52.84375,237.625 C 51.411351,239.88001 50.46005,241.19689 50.09375,241.65625 C 50.142651,241.55404 50.19125,241.42293 50.28125,241.25 L 52.6875,236.1875 C 53.523501,234.38586 54.13775,232.55874 54.59375,230.71875 L 55.8125,225.875 L 56.59375,222.21875 L 57.34375,218.875 L 58,210.625 z M 52.9375,216.4375 C 53.039701,216.42074 53.155,216.41833 53.25,216.4375 C 53.630001,216.47584 53.97725,216.8 54.28125,217.375 L 54.84375,219.09375 C 54.957751,219.66877 54.75075,220.17208 54.21875,220.59375 L 53.78125,220.65625 L 53.75,220.53125 C 53.522,220.22458 53.181499,220.03833 52.6875,220 C 52.1935,219.92333 51.870751,220.13375 51.71875,220.59375 C 51.702917,220.63208 51.701486,220.65103 51.6875,220.6875 C 51.189179,220.44493 50.865414,220.1402 50.6875,219.78125 C 50.383501,219.28294 50.408,218.82792 50.75,218.40625 C 51.016001,217.9846 51.4055,217.55375 51.9375,217.09375 C 52.308001,216.72001 52.6312,216.48781 52.9375,216.4375 z M 49.46875,223.84375 C 49.627951,223.99536 49.795,224.23048 49.9375,224.5 L 50.5,226.21875 C 50.614001,226.79377 50.43825,227.32832 49.90625,227.75 L 49.46875,227.8125 L 49.4375,227.65625 C 49.2095,227.34958 48.83775,227.16332 48.34375,227.125 C 47.84975,227.04833 47.527002,227.25875 47.375,227.71875 C 47.359924,227.75525 47.357151,227.77769 47.34375,227.8125 C 46.855545,227.5642 46.517617,227.25703 46.34375,226.90625 C 46.039751,226.40793 46.06425,225.95291 46.40625,225.53125 L 47.625,224.21875 C 47.835901,224.00608 48.03295,223.83183 48.21875,223.71875 C 48.737663,223.42896 49.078054,223.4692 49.46875,223.84375 z M 43.9375,228.40625 C 44.022501,228.51597 44.1124,228.67044 44.1875,228.8125 L 44.78125,230.53125 C 44.895251,231.10627 44.657,231.64082 44.125,232.0625 C 44.000876,232.14858 43.881156,232.22274 43.75,232.28125 L 43.65625,231.96875 C 43.42825,231.66208 43.08775,231.47582 42.59375,231.4375 C 42.110397,231.36248 41.780938,231.56123 41.625,232 L 40.59375,231.21875 C 40.289751,230.72043 40.283,230.26541 40.625,229.84375 L 41.84375,228.53125 C 42.054551,228.31858 42.28295,228.14433 42.46875,228.03125 C 43.146165,227.71126 43.520645,227.99342 43.9375,228.40625 z M 49.59375,231.15625 C 49.752851,231.30902 49.88995,231.54522 50.03125,231.8125 L 50.625,233.53125 C 50.739001,234.10626 50.5321,234.60957 50,235.03125 L 49.5625,235.09375 L 49.53125,234.96875 C 49.30325,234.66208 48.962752,234.47583 48.46875,234.4375 C 47.97475,234.36083 47.652,234.54001 47.5,235 C 47.480378,235.04751 47.485535,235.08036 47.46875,235.125 C 46.970455,234.88243 46.646664,234.5777 46.46875,234.21875 C 46.164751,233.72042 46.18925,233.26543 46.53125,232.84375 L 47.71875,231.5 C 47.915551,231.30147 48.1385,231.14137 48.3125,231.03125 C 48.786555,230.71113 49.237981,230.85332 49.59375,231.15625 z M 40.4375,235.4375 L 41,237.15625 C 41.114001,237.73125 40.87575,238.23457 40.34375,238.65625 C 40.223833,238.73942 40.093281,238.78632 39.96875,238.84375 L 39.90625,238.5625 C 39.67825,238.25583 39.306501,238.10084 38.8125,238.0625 C 38.3185,237.98583 37.995749,238.16499 37.84375,238.625 C 37.828674,238.6615 37.825901,238.68394 37.8125,238.71875 C 37.324295,238.47908 36.986367,238.19453 36.8125,237.84375 C 36.508501,237.34544 36.56425,236.89041 36.90625,236.46875 C 37.172251,236.0471 37.5305,235.61626 38.0625,235.15625 C 38.251101,234.96598 38.47875,234.79869 38.65625,234.6875 C 39.533113,234.3119 39.773079,234.29255 40.4375,235.4375 z M 46.875,237.21875 C 47.072101,237.36642 47.2665,237.61406 47.4375,237.9375 L 48,239.65625 C 48.114001,240.23125 47.907,240.76584 47.375,241.1875 L 46.9375,241.25 L 46.90625,241.09375 C 46.67825,240.78708 46.33775,240.63207 45.84375,240.59375 C 45.34975,240.51708 45.027001,240.69625 44.875,241.15625 C 44.859924,241.19275 44.857151,241.21519 44.84375,241.25 C 44.355545,241.01033 44.017617,240.72578 43.84375,240.375 C 43.539751,239.87667 43.56425,239.42168 43.90625,239 C 44.172251,238.57834 44.56175,238.11625 45.09375,237.65625 C 45.301451,237.44678 45.5007,237.27001 45.6875,237.15625 C 46.131321,236.80472 46.562123,237.00158 46.875,237.21875 z M 41.09375,242 C 41.290751,242.14767 41.48525,242.39532 41.65625,242.71875 L 42.25,244.4375 C 42.364001,245.01252 42.1571,245.54707 41.625,245.96875 L 41.1875,246.03125 C 41.07699,245.46977 40.460286,245.55684 40.0625,245.375 C 39.5685,245.29833 39.245751,245.4775 39.09375,245.9375 C 39.078491,245.97444 39.076043,245.99604 39.0625,246.03125 C 38.574295,245.78296 38.236367,245.47578 38.0625,245.125 C 37.758501,244.62668 37.81425,244.20293 38.15625,243.78125 C 38.422251,243.35959 38.81175,242.89749 39.34375,242.4375 C 39.540551,242.23895 39.7635,242.07887 39.9375,241.96875 C 40.344477,241.57626 40.920577,241.78983 41.09375,242 z M 35.46875,248.09375 C 35.679274,248.09816 35.875656,248.21438 36.0625,248.40625 C 36.249901,248.56624 36.4647,248.82176 36.625,249.125 L 37.1875,250.84375 C 37.301501,251.41877 37.06325,251.89083 36.53125,252.3125 L 36.125,252.375 C 36.025561,251.44718 34.438804,251.48251 34.0625,252.28125 L 33,251.53125 C 32.696001,251.03292 32.75175,250.57791 33.09375,250.15625 L 34.25,248.84375 C 34.419901,248.67245 34.5966,248.51629 34.75,248.40625 C 35.033558,248.19675 35.258226,248.08934 35.46875,248.09375 z M 42.1875,248.5 C 42.560709,248.50086 42.918511,248.77843 43.28125,249.53125 L 43.84375,251.25 C 43.957751,251.825 43.75075,252.32832 43.21875,252.75 C 43.094626,252.83609 42.972827,252.91024 42.84375,252.96875 L 42.75,252.65625 C 42.522,252.34958 42.181499,252.19458 41.6875,252.15625 C 41.1935,252.07958 40.870751,252.25875 40.71875,252.71875 C 40.703674,252.75525 40.700901,252.77769 40.6875,252.8125 C 40.199295,252.57283 39.861367,252.28828 39.6875,251.9375 C 39.383501,251.43919 39.4081,250.98416 39.75,250.5625 C 40.016001,250.14086 40.4055,249.67876 40.9375,249.21875 C 41.126201,249.02849 41.3226,248.86119 41.5,248.75 C 41.727462,248.60413 41.963574,248.49949 42.1875,248.5 z M 29.6875,254.625 L 31.78125,254.6875 L 31.21875,257.0625 L 29.3125,257.0625 L 29.6875,254.625 z M 33.125,254.8125 L 35.75,254.96875 L 35.09375,257.09375 L 32.65625,257.0625 L 33.125,254.8125 z M 37.1875,255.09375 L 40.03125,255.375 L 39.09375,257.09375 L 36.4375,257.09375 L 37.1875,255.09375 z M 29.09375,258.8125 L 30.84375,258.8125 L 30.5625,260.09375 L 28.90625,260.09375 L 29.09375,258.8125 z M 32.28125,258.8125 L 34.5,258.8125 L 34.0625,260.15625 L 32.0625,260.09375 L 32.28125,258.8125 z M 35.78125,258.8125 L 38.25,258.8125 L 37.5,260.15625 L 35.375,260.15625 L 35.78125,258.8125 z M 19.28125,261.25 C 20.132449,261.15775 20.93435,261.47293 21.71875,262.15625 C 22.516749,262.88458 23.1936,263.68083 23.6875,264.5625 L 25.3125,267.125 C 25.958501,267.96833 27.13375,268.42334 28.84375,268.5 L 41.96875,268.59375 L 41.65625,270.09375 L 40.03125,272.15625 L 37.0625,274.40625 C 35.808501,275.09624 34.86475,275.55126 34.21875,275.78125 L 30.375,275.96875 C 28.513001,275.89206 26.92375,275.38875 25.59375,274.46875 L 22.1875,271.59375 L 19.71875,268.78125 L 17.8125,266.5625 C 17.166501,265.91081 16.97725,264.87292 17.28125,263.53125 C 17.395249,262.95625 17.5846,262.50126 17.8125,262.15625 C 18.109751,261.53698 18.801899,261.29831 19.28125,261.25 z M 28.65625,261.40625 L 30.28125,261.46875 L 29.875,263.4375 L 28.375,263.4375 L 28.65625,261.40625 z M 31.78125,261.46875 L 33.59375,261.53125 L 32.9375,263.375 L 31.375,263.4375 L 31.78125,261.46875 z M 34.84375,261.59375 L 36.71875,261.65625 L 35.75,263.375 L 34.25,263.375 L 34.84375,261.59375 z M 28.25,264.6875 L 29.59375,264.6875 L 29.25,266.25 L 28,266.25 L 28.25,264.6875 z M 31.125,264.75 L 32.53125,264.75 L 31.96875,266.25 L 30.8125,266.25 L 31.125,264.75 z M 33.875,264.75 L 35,264.75 L 34.09375,266.25 L 33.40625,266.25 L 33.875,264.75 z"
           id="path3599"
           sodipodi:nodetypes="cccccccccccccccccccccccccsccccccccccccccccccscccccccccccscccccccccccccccccccccscccccccccccccccccccccccccccssssssssssssssccccccccccsccccccsccccccccccccscccccccccsccccccccccccccccsccccccccscccscccccccccccccsccccccccccccscccccccsccccccccsccccscccsccccsccccccccccccccccccccccccccccccccccccccccccccccccccccccccccccccccccccccccccccccc"
           transform="translate(17,17.12543)" />
        <path
           style="fill:#993300"
           d="M 32.795846,280.944 L 32.738846,281.059 L 32.396846,281.979 C 31.104846,281.749 30.097846,281.25067 29.375846,280.484 C 28.463846,279.52567 27.969846,278.7015 27.893846,278.0115 C 27.817846,277.3215 27.912846,276.65067 28.178846,275.999 C 28.406846,275.34733 28.938846,275.0215 29.774846,275.0215 C 30.610846,274.98317 31.142846,275.27067 31.370846,275.884 L 31.541846,277.379 L 31.199846,278.874 C 31.009846,279.52567 31.199846,280.04317 31.769846,280.4265 C 32.187846,280.73317 32.529846,280.90567 32.795846,280.944 z"
           id="path2671" />
        <path
           style="fill:#333333"
           d="M 38.381846,283.5315 L 37.982846,284.3365 L 37.184846,284.739 L 36.329846,284.3365 C 36.101846,284.1065 35.987846,283.83817 35.987846,283.5315 C 35.987846,283.1865 36.101846,282.87983 36.329846,282.6115 C 36.557846,282.3815 36.842846,282.28567 37.184846,282.324 C 37.526846,282.28567 37.792846,282.3815 37.982846,282.6115 C 38.248846,282.87983 38.381846,283.1865 38.381846,283.5315 z"
           id="path3491" />
        <path
           style="fill:#006633"
           d="M 73.096846,269.57677 C 72.831446,269.58755 72.598146,269.64144 72.455646,269.68458 L 71.030646,270.00802 C 70.498646,270.19969 69.928646,270.48719 69.320646,270.87052 C 68.674646,271.21552 67.883746,271.7929 66.933746,272.55958 L 63.406846,275.61427 L 59.880046,279.06427 C 58.892046,279.98427 57.436146,282.09259 55.498146,285.38927 L 57.243746,285.38927 L 58.633146,283.19708 L 58.668746,283.1252 L 59.701846,283.1252 L 59.310046,283.66427 L 58.063146,285.38927 L 60.271846,285.38927 L 60.378746,285.20958 L 61.981846,283.1252 L 63.121846,283.1252 L 61.590046,285.38927 L 62.908146,285.38927 L 63.050646,286.25177 C 67.344646,280.84677 71.303746,275.31957 74.913746,269.68458 C 74.130046,269.6127 73.539246,269.55879 73.096846,269.57677 z M 68.251846,273.60177 L 63.976846,278.12989 L 61.590046,280.8252 L 60.343146,280.8252 L 61.411846,279.49552 C 62.323846,278.46052 63.307146,277.50457 64.333146,276.58458 C 65.321146,275.66458 66.176146,274.9602 66.898146,274.5002 L 68.251846,273.60177 z M 70.140046,273.99708 L 69.391846,275.25489 L 65.473146,280.14239 L 64.903146,280.8252 L 63.870046,280.8252 L 65.615646,278.70489 C 67.097646,276.94156 68.620046,275.37707 70.140046,273.99708 z"
           id="path1442" />
        <path
           style="fill:#006633"
           d="M 29.135646,251.46427 L 29.100046,252.43458 L 29.385046,255.20177 C 30.297046,259.99344 32.702846,266.2202 36.616846,273.9252 L 36.830646,274.39239 L 36.973146,274.57208 L 37.008746,274.57208 L 37.578746,274.89552 L 39.680646,275.14708 L 42.495046,275.18302 L 44.703746,275.03927 L 44.988746,274.96739 L 45.060046,274.85958 L 45.166846,273.13458 L 44.490046,273.13458 L 43.065046,270.25958 L 45.060046,270.25958 L 45.095646,268.82208 L 42.423746,268.82208 L 41.390646,265.94708 L 45.238146,267.85177 L 45.523146,266.23458 C 41.533146,264.08791 39.060746,262.61688 38.148746,261.8502 L 35.940046,260.12521 L 33.660046,257.60958 L 30.916846,253.90802 L 29.135646,251.46427 z M 31.558146,257.60958 L 34.123146,260.87989 L 37.400646,268.82208 L 35.868746,268.82208 C 34.006746,265.06541 32.584146,261.3279 31.558146,257.60958 z M 36.403146,262.38927 L 39.003746,264.79708 L 40.606846,268.82208 L 39.003746,268.82208 C 37.635746,266.33041 36.783146,264.19093 36.403146,262.38927 z M 36.616846,270.25958 L 38.113146,270.25958 L 39.538146,273.0627 L 38.220046,273.13458 L 36.616846,270.25958 z M 39.823146,270.25958 L 41.283746,270.25958 L 41.675646,271.12208 L 42.423746,273.02677 L 41.533146,273.02677 L 39.823146,270.25958 z"
           id="path4139" />
      </g>
    </g>
  </g>
</svg>
